<svg width="59" height="60" viewBox="0 0 59 60" fill="none" xmlns="http://www.w3.org/2000/svg">
<g clip-path="url(#clip0_102_451)">
<path d="M51.3948 42.1875C55.2402 42.1875 57.8191 39.5531 57.8191 35.625C57.8191 31.6978 55.2402 27.1875 51.3948 27.1875C51.3948 17.3672 42.6531 10.3125 33.0395 10.3125C24.5309 10.3125 17.1181 16.1353 15.602 24.375C15.602 24.375 14.4713 24.375 13.7665 24.375C8.95922 24.375 5.50659 28.8393 5.50659 33.75C5.50659 38.6606 8.95922 42.1875 13.7665 42.1875H51.3948Z" stroke="black" stroke-width="3" stroke-miterlimit="10"/>
<path d="M27.5319 11.0175C25.5073 9.40125 22.9596 8.4375 20.1907 8.4375C13.6011 8.4375 8.25977 13.8937 8.25977 20.625C8.25977 23.0409 8.90862 24.3553 10.0953 26.25" stroke="black" stroke-width="3" stroke-miterlimit="10"/>
<path d="M5.50658 20.625H0" stroke="black" stroke-width="3" stroke-miterlimit="10"/>
<path d="M20.1907 5.625V0" stroke="black" stroke-width="3" stroke-miterlimit="10"/>
<path d="M9.17772 9.37497L3.67114 3.74997" stroke="black" stroke-width="3" stroke-miterlimit="10"/>
<path d="M22.0264 45V48.75" stroke="black" stroke-width="3" stroke-miterlimit="10"/>
<path d="M22.0264 52.5V56.25" stroke="black" stroke-width="3" stroke-miterlimit="10"/>
<path d="M25.6973 46.875L23.8618 48.75" stroke="black" stroke-width="3" stroke-miterlimit="10"/>
<path d="M20.1908 52.5L18.3552 54.375" stroke="black" stroke-width="3" stroke-miterlimit="10"/>
<path d="M25.6973 54.375L23.8618 52.5" stroke="black" stroke-width="3" stroke-miterlimit="10"/>
<path d="M20.1908 48.75L18.3552 46.875" stroke="black" stroke-width="3" stroke-miterlimit="10"/>
<path d="M27.5329 50.625H23.8618" stroke="black" stroke-width="3" stroke-miterlimit="10"/>
<path d="M20.1908 50.625H16.5198" stroke="black" stroke-width="3" stroke-miterlimit="10"/>
<path d="M40.3816 46.875V50.625" stroke="black" stroke-width="3" stroke-miterlimit="10"/>
<path d="M40.3816 54.375V58.125" stroke="black" stroke-width="3" stroke-miterlimit="10"/>
<path d="M44.0526 48.75L42.217 50.625" stroke="black" stroke-width="3" stroke-miterlimit="10"/>
<path d="M38.546 54.375L36.7104 56.25" stroke="black" stroke-width="3" stroke-miterlimit="10"/>
<path d="M44.0526 56.25L42.217 54.375" stroke="black" stroke-width="3" stroke-miterlimit="10"/>
<path d="M38.546 50.625L36.7104 48.75" stroke="black" stroke-width="3" stroke-miterlimit="10"/>
<path d="M45.8881 52.5H42.217" stroke="black" stroke-width="3" stroke-miterlimit="10"/>
<path d="M38.5461 52.5H34.875" stroke="black" stroke-width="3" stroke-miterlimit="10"/>
</g>
<defs>
<clipPath id="clip0_102_451">
<rect width="58.7368" height="60" fill="white"/>
</clipPath>
</defs>
</svg>
